<svg xmlns="http://www.w3.org/2000/svg" xmlns:xlink="http://www.w3.org/1999/xlink" version="1.1" x="0px" y="0px" viewBox="0 0 100 125" style="enable-background:new 0 0 100 100;" xml:space="preserve"><g><path d="M59.3,67.4c-0.4,0-0.8-0.2-0.9-0.6c-0.2-0.5,0-1.1,0.5-1.3C67,62,72.3,54.1,72.3,45.3c0-12.1-9.8-21.9-21.9-21.9   c-12.1,0-21.9,9.8-21.9,21.9c0,8.4,4.9,16.2,12.6,19.8c0.5,0.2,0.7,0.8,0.5,1.3c-0.2,0.5-0.8,0.7-1.3,0.5   C31.9,63,26.5,54.5,26.5,45.3c0-13.2,10.7-23.9,23.9-23.9s23.9,10.7,23.9,23.9c0,9.6-5.7,18.3-14.6,22   C59.6,67.4,59.4,67.4,59.3,67.4z"/><path d="M50,18.8c-0.6,0-1-0.4-1-1V8.2c0-0.6,0.4-1,1-1s1,0.4,1,1v9.7C51,18.4,50.6,18.8,50,18.8z"/><path d="M88.3,46.7h-10c-0.6,0-1-0.4-1-1s0.4-1,1-1h10c0.6,0,1,0.4,1,1S88.9,46.7,88.3,46.7z"/><path d="M69.3,26.8c-0.3,0-0.5-0.1-0.7-0.3c-0.4-0.4-0.4-1,0-1.4l5.1-5.1c0.4-0.4,1-0.4,1.4,0s0.4,1,0,1.4L70,26.5   C69.9,26.7,69.6,26.8,69.3,26.8z"/><path d="M31.2,26.8c-0.3,0-0.5-0.1-0.7-0.3l-5.1-5.1c-0.4-0.4-0.4-1,0-1.4s1-0.4,1.4,0l5.1,5.1c0.4,0.4,0.4,1,0,1.4   C31.7,26.7,31.4,26.8,31.2,26.8z"/><path d="M23,46.7h-9.8c-0.6,0-1-0.4-1-1s0.4-1,1-1H23c0.6,0,1,0.4,1,1S23.5,46.7,23,46.7z"/><g><path d="M60,85.3h-5.3V52.9H64c1.5,0,2.7-1.2,2.7-2.7v-3.3c0-1.5-1.2-2.7-2.7-2.7h-9.3V33.9c0-1.5-1.2-2.7-2.7-2.7h-3.3    c-1.5,0-2.7,1.2-2.7,2.7v10.3h-9.3c-1.5,0-2.7,1.2-2.7,2.7v3.3c0,1.5,1.2,2.7,2.7,2.7h9.3v32.4h-9.3c-0.6,0-1,0.4-1,1s0.4,1,1,1    H60c0.6,0,1-0.4,1-1S60.6,85.3,60,85.3z"/><path d="M66.7,85.3h-3c-0.6,0-1,0.4-1,1s0.4,1,1,1h3c0.6,0,1-0.4,1-1S67.3,85.3,66.7,85.3z"/></g></g></svg>